<svg xmlns="http://www.w3.org/2000/svg" viewBox="0 0 64 64" role="img" aria-label="DNDMind favicon">
  <rect width="64" height="64" rx="14" fill="#15120f"/>
  <path d="M32 6 55 19.5v25L32 58 9 44.5v-25L32 6Z" fill="#2a2219" stroke="#f3c969" stroke-width="4" stroke-linejoin="round"/>
  <path d="M32 6 32 31.5 9 19.5M32 31.5 55 19.5M32 31.5 32 58M32 31.5 9 44.5M32 31.5 55 44.5" fill="none" stroke="#b8873e" stroke-width="3" stroke-linecap="round" stroke-linejoin="round"/>
  <path d="M32 15 40 29 32 49 24 29 32 15Z" fill="#17120c" stroke="#f8df9a" stroke-width="3" stroke-linejoin="round"/>
  <path d="M44.5 15.5 47 21 52.5 23.5 47 26 44.5 31.5 42 26 36.5 23.5 42 21 44.5 15.5Z" fill="#42e8d3" stroke="#e9fffb" stroke-width="1.5" stroke-linejoin="round"/>
  <circle cx="24" cy="38" r="2.2" fill="#42e8d3"/>
</svg>
